<svg width="91" height="33" viewBox="0 0 91 33" fill="none" xmlns="http://www.w3.org/2000/svg">
<path d="M22.3575 24.5321H29.167L24.9335 1.2822H24.9075L20.0155 11.1845L22.3575 24.5321Z" fill="#FF7700"/>
<path d="M29.5858 26.8568H19.1492L17.7428 19.334L13.7865 26.8568H9.5356L19.4697 7.9704L23.5502 0H17.1017L0 32H30.5185L29.5858 26.8568Z" fill="#FF7700"/>
<path d="M40.964 10.404H37.628L37.076 12H35.312L38.324 3.612H40.28L43.292 12H41.516L40.964 10.404ZM40.508 9.06L39.296 5.556L38.084 9.06H40.508ZM51.0778 3.624L48.2458 9.084V12H46.5658V9.084L43.7218 3.624H45.6178L47.4178 7.452L49.2058 3.624H51.0778ZM53.7028 3.624V8.808C53.7028 9.376 53.8508 9.812 54.1468 10.116C54.4428 10.412 54.8588 10.56 55.3948 10.56C55.9388 10.56 56.3588 10.412 56.6548 10.116C56.9508 9.812 57.0988 9.376 57.0988 8.808V3.624H58.7908V8.796C58.7908 9.508 58.6348 10.112 58.3228 10.608C58.0188 11.096 57.6068 11.464 57.0868 11.712C56.5748 11.96 56.0028 12.084 55.3708 12.084C54.7468 12.084 54.1788 11.96 53.6668 11.712C53.1628 11.464 52.7628 11.096 52.4668 10.608C52.1708 10.112 52.0228 9.508 52.0228 8.796V3.624H53.7028ZM37.508 20.668H40.268V22H35.828V13.624H37.508V20.668ZM46.4718 20.404H43.1358L42.5838 22H40.8198L43.8318 13.612H45.7878L48.7998 22H47.0238L46.4718 20.404ZM46.0158 19.06L44.8038 15.556L43.5918 19.06H46.0158ZM54.6537 22L51.6057 18.268V22H49.9257V13.624H51.6057V17.38L54.6537 13.624H56.6817L53.2257 17.776L56.7777 22H54.6537ZM60.7747 22.084C60.1907 22.084 59.6627 21.984 59.1907 21.784C58.7267 21.584 58.3587 21.296 58.0867 20.92C57.8147 20.544 57.6747 20.1 57.6667 19.588H59.4667C59.4907 19.932 59.6107 20.204 59.8267 20.404C60.0507 20.604 60.3547 20.704 60.7387 20.704C61.1307 20.704 61.4387 20.612 61.6627 20.428C61.8867 20.236 61.9987 19.988 61.9987 19.684C61.9987 19.436 61.9227 19.232 61.7707 19.072C61.6187 18.912 61.4267 18.788 61.1947 18.7C60.9707 18.604 60.6587 18.5 60.2587 18.388C59.7147 18.228 59.2707 18.072 58.9267 17.92C58.5907 17.76 58.2987 17.524 58.0507 17.212C57.8107 16.892 57.6907 16.468 57.6907 15.94C57.6907 15.444 57.8147 15.012 58.0627 14.644C58.3107 14.276 58.6587 13.996 59.1067 13.804C59.5547 13.604 60.0667 13.504 60.6427 13.504C61.5067 13.504 62.2067 13.716 62.7427 14.14C63.2867 14.556 63.5867 15.14 63.6427 15.892H61.7947C61.7787 15.604 61.6547 15.368 61.4227 15.184C61.1987 14.992 60.8987 14.896 60.5227 14.896C60.1947 14.896 59.9307 14.98 59.7307 15.148C59.5387 15.316 59.4427 15.56 59.4427 15.88C59.4427 16.104 59.5147 16.292 59.6587 16.444C59.8107 16.588 59.9947 16.708 60.2107 16.804C60.4347 16.892 60.7467 16.996 61.1467 17.116C61.6907 17.276 62.1347 17.436 62.4787 17.596C62.8227 17.756 63.1187 17.996 63.3667 18.316C63.6147 18.636 63.7387 19.056 63.7387 19.576C63.7387 20.024 63.6227 20.44 63.3907 20.824C63.1587 21.208 62.8187 21.516 62.3707 21.748C61.9227 21.972 61.3907 22.084 60.7747 22.084ZM70.3312 20.404H66.9952L66.4432 22H64.6792L67.6912 13.612H69.6472L72.6592 22H70.8832L70.3312 20.404ZM69.8752 19.06L68.6632 15.556L67.4512 19.06H69.8752ZM80.949 22H79.269L75.465 16.252V22H73.785V13.612H75.465L79.269 19.372V13.612H80.949V22ZM87.7453 20.404H84.4093L83.8573 22H82.0933L85.1053 13.612H87.0613L90.0733 22H88.2973L87.7453 20.404ZM87.2893 19.06L86.0773 15.556L84.8652 19.06H87.2893ZM35.42 27.8C35.42 26.976 35.604 26.24 35.972 25.592C36.348 24.936 36.856 24.428 37.496 24.068C38.144 23.7 38.868 23.516 39.668 23.516C40.604 23.516 41.424 23.756 42.128 24.236C42.832 24.716 43.324 25.38 43.604 26.228H41.672C41.48 25.828 41.208 25.528 40.856 25.328C40.512 25.128 40.112 25.028 39.656 25.028C39.168 25.028 38.732 25.144 38.348 25.376C37.972 25.6 37.676 25.92 37.46 26.336C37.252 26.752 37.148 27.24 37.148 27.8C37.148 28.352 37.252 28.84 37.46 29.264C37.676 29.68 37.972 30.004 38.348 30.236C38.732 30.46 39.168 30.572 39.656 30.572C40.112 30.572 40.512 30.472 40.856 30.272C41.208 30.064 41.48 29.76 41.672 29.36H43.604C43.324 30.216 42.832 30.884 42.128 31.364C41.432 31.836 40.612 32.072 39.668 32.072C38.868 32.072 38.144 31.892 37.496 31.532C36.856 31.164 36.348 30.656 35.972 30.008C35.604 29.36 35.42 28.624 35.42 27.8ZM49.3589 32L47.5109 28.736H46.7189V32H45.0389V23.624H48.1829C48.8309 23.624 49.3829 23.74 49.8389 23.972C50.2949 24.196 50.6349 24.504 50.8589 24.896C51.0909 25.28 51.2069 25.712 51.2069 26.192C51.2069 26.744 51.0469 27.244 50.7269 27.692C50.4069 28.132 49.9309 28.436 49.2989 28.604L51.3029 32H49.3589ZM46.7189 27.476H48.1229C48.5789 27.476 48.9189 27.368 49.1429 27.152C49.3669 26.928 49.4789 26.62 49.4789 26.228C49.4789 25.844 49.3669 25.548 49.1429 25.34C48.9189 25.124 48.5789 25.016 48.1229 25.016H46.7189V27.476ZM57.8624 30.404H54.5264L53.9744 32H52.2104L55.2224 23.612H57.1784L60.1904 32H58.4144L57.8624 30.404ZM57.4064 29.06L56.1944 25.556L54.9824 29.06H57.4064ZM66.4883 23.624V24.98H62.9963V27.128H65.6723V28.46H62.9963V32H61.3163V23.624H66.4883ZM73.3796 23.624V24.98H71.1476V32H69.4676V24.98H67.2356V23.624H73.3796Z" fill="#FF7700"/>
</svg>
